<?xml version="1.0" encoding="UTF-8" standalone="no"?>
<!-- Created with Inkscape (http://www.inkscape.org/) -->

<svg
   xmlns:dc="http://purl.org/dc/elements/1.1/"
   xmlns:cc="http://creativecommons.org/ns#"
   xmlns:rdf="http://www.w3.org/1999/02/22-rdf-syntax-ns#"
   xmlns:svg="http://www.w3.org/2000/svg"
   xmlns="http://www.w3.org/2000/svg"
   xmlns:sodipodi="http://sodipodi.sourceforge.net/DTD/sodipodi-0.dtd"
   xmlns:inkscape="http://www.inkscape.org/namespaces/inkscape"
   width="87.65847mm"
   height="72.094833mm"
   viewBox="0 0 87.65847 72.094833"
   version="1.1"
   id="svg920"
   inkscape:version="0.92.3 (2405546, 2018-03-11)"
   sodipodi:docname="Ali_Trace_Proto.svg">
  <defs
     id="defs914" />
  <sodipodi:namedview
     id="base"
     pagecolor="#ffffff"
     bordercolor="#666666"
     borderopacity="1.0"
     inkscape:pageopacity="0.0"
     inkscape:pageshadow="2"
     inkscape:zoom="0.98994949"
     inkscape:cx="-307.46848"
     inkscape:cy="113.07771"
     inkscape:document-units="mm"
     inkscape:current-layer="layer1"
     showgrid="false"
     inkscape:window-width="1920"
     inkscape:window-height="986"
     inkscape:window-x="-11"
     inkscape:window-y="-11"
     inkscape:window-maximized="1" />
  <metadata
     id="metadata917">
    <rdf:RDF>
      <cc:Work
         rdf:about="">
        <dc:format>image/svg+xml</dc:format>
        <dc:type
           rdf:resource="http://purl.org/dc/dcmitype/StillImage" />
        <dc:title></dc:title>
      </cc:Work>
    </rdf:RDF>
  </metadata>
  <g
     inkscape:label="Layer 1"
     inkscape:groupmode="layer"
     id="layer1"
     transform="translate(-50.664811,-78.012104)">
    <path
       sodipodi:nodetypes="ccsssssssssssssssssssssccsssssssc"
       inkscape:connector-curvature="0"
       id="path898"
       d="m 78.381886,118.17451 c -0.936863,-1.27791 -0.04479,-1.11059 -0.817779,-2.26438 -0.86245,-1.20896 -1.321253,-2.61633 -1.487644,-2.78926 -0.94823,-0.98552 -2.353658,-3.99556 -2.791051,-6.49476 -0.148082,-0.84611 -0.185209,-1.63367 -0.05607,-2.2643 0.352383,-1.72085 0.441463,-3.22982 -0.02945,-3.92359 -0.364856,-0.537526 -0.574239,-1.390146 -0.568111,-2.531347 0.0045,-0.834416 0.149897,-1.480873 0.51018,-2.325846 0.245745,-0.576342 0.198864,-1.111303 0.212704,-1.838404 0.02056,-1.080162 0.126944,-2.35286 0.327512,-3.418285 0.267872,-1.422955 -0.661792,-2.930472 -0.595691,-3.58648 0.291023,-2.888218 3.255628,-5.483251 3.967957,-5.8801 1.979042,-1.102598 4.68401,-2.8498 6.53314,-2.845488 4.508427,0.01058 10.399598,0.248021 12.398242,1.191631 1.604227,0.757396 3.207721,2.067481 4.457375,2.962434 1.94386,1.392131 3.19187,2.340821 3.49077,2.968651 1.40493,2.950898 3.32463,6.004481 3.6126,8.536252 0.30946,2.720552 0.4862,5.027877 0.13494,6.392282 -0.69162,2.6865 -1.33322,4.23156 -3.21552,6.96079 -0.28955,0.41984 -1.41975,1.09003 -1.59886,1.62523 -0.20762,0.62037 -0.58704,1.90558 -0.74608,3.47276 -0.12883,1.26955 -0.0548,2.74355 -0.0883,4.04545 -0.0553,2.15025 0.18705,4.32459 0.796,6.63454 0.3317,1.25822 0.67849,2.68353 2.32271,3.27654 1.37634,3.08483 -0.76912,6.79649 -2.41832,9.19404 -2.791525,2.04377 -5.738359,3.75205 -7.303583,3.6667 -2.861414,-0.15605 -5.859098,-0.15632 -6.160487,-0.42564 -1.202971,-1.07505 -9.064078,-1.19459 -8.329213,-10.61373 0.04573,-0.58618 1.321432,-1.35583 1.634455,-1.46984 0.434854,-0.15841 0.164574,0.51702 0.0831,-0.0812 -0.04161,-0.30552 -0.112294,-5.72423 -0.44292,-5.78697 -0.80795,-0.15332 -2.335707,-0.48344 -2.74375,-0.80838 -0.725419,-0.57764 -0.815864,-0.8926 -1.088851,-1.5793 z"
       style="opacity:1;fill:#ae805c;fill-opacity:0.54545456;stroke:none;stroke-width:8.68753719;stroke-linecap:round;stroke-linejoin:round;stroke-miterlimit:4;stroke-dasharray:none;stroke-opacity:1;paint-order:fill markers stroke" />
    <path
       sodipodi:nodetypes="ccsssscscsscsccsssscccsccsc"
       inkscape:connector-curvature="0"
       id="path900"
       d="m 83.587579,78.012112 c -1.84913,-0.0042 -4.553894,1.743233 -6.532936,2.845832 -0.71233,0.396848 -3.677207,2.991511 -3.96823,5.879729 -0.0661,0.656008 0.863701,2.163921 0.595829,3.586877 -0.06272,0.333163 0.743252,-1.256877 1.020679,-1.684232 0.716285,-1.103391 3.486412,-2.255811 4.326538,-2.733913 0.201581,-0.114723 3.414287,-1.052195 4.888222,-1.178639 2.745428,-0.118031 5.354265,0.02567 7.143049,0.181187 1.159306,0.100832 1.681237,0.87204 1.899037,1.192926 -0.08763,0.155152 -1.333752,5.745719 -1.333752,4.832932 0,-0.0026 1.579936,1.15623 2.248787,2.179717 0.286329,0.43815 1.145804,0.856853 1.909304,1.751912 0.234236,0.430583 0.08189,2.154873 0.155446,2.380377 0.530981,1.62777 0.284866,2.52357 1.387192,2.881203 0.06586,0.18347 0.491746,0.58534 0.644419,1.44336 0.342265,0.24977 0.724945,-1.07069 0.9178,-1.584114 0.432707,-1.151996 0.455768,-1.046639 1.430957,-1.20695 0.58266,-0.09578 0.63136,0.05308 1.11174,-0.121973 1.23064,-0.448416 0.93636,-0.817457 1.6931,-0.913209 1.50764,-0.190765 1.38519,-0.07895 2.11338,0.233018 1.09722,2.043618 2.32711,3.579368 -0.36091,8.680288 1.3602,-2.30489 2.21401,-4.30135 2.80448,-6.59495 0.35126,-1.364401 0.17407,-3.671832 -0.13539,-6.392384 -0.28798,-2.531772 -2.20725,-5.58501 -3.61218,-8.535908 -0.2989,-0.62783 -1.54688,-1.576679 -3.49074,-2.96881 -1.249659,-0.894954 -2.853383,-2.205223 -4.45761,-2.962619 -1.998644,-0.94361 -7.88978,-1.181074 -12.398211,-1.191657 z"
       style="opacity:1;fill:#000000;fill-opacity:0.4545455;stroke:none;stroke-width:8.68753719;stroke-linecap:round;stroke-linejoin:round;stroke-miterlimit:4;stroke-dasharray:none;stroke-opacity:1;paint-order:fill markers stroke" />
    <path
       sodipodi:nodetypes="ccccccsssssssccccccscccscsssc"
       inkscape:connector-curvature="0"
       id="path902"
       d="m 83.398389,111.04174 c -1.015447,0.17243 -2.237806,0.92747 -1.51769,0.75253 1.220409,-0.93088 -0.569462,-0.17531 -1.813687,0.35642 -0.129135,0.63064 -2.41106,-0.42532 -2.262978,0.42079 0,0 0.534778,0.87212 1.185727,1.32252 0.166391,0.17294 -0.385437,0.45038 -0.949936,1.65934 -2.738679,-3.93512 -2.866523,-3.78193 -2.866523,-3.78193 0.07474,0.23781 0.447789,0.75668 0.465254,0.78436 0.0471,0.0746 0.404556,0.5144 0.47584,0.61849 0.18148,0.26495 0.472784,1.05039 0.749811,1.55625 0.121435,0.22175 0.274519,0.51467 0.434782,0.77592 0.250645,0.40857 0.497361,0.7612 0.503097,0.80793 0.06524,0.53131 0.0629,1.17015 0.349965,1.48069 0.113088,0.12231 0.119978,0.34583 0.229645,0.37949 0.272986,0.6867 0.363402,1.00158 1.088821,1.57922 0.425281,0.3525 2.568004,0.9525 3.041301,0.57039 2.831684,-0.73639 3.453297,-0.72861 6.76647,-2.13741 2.85732,-1.00219 4.737327,-2.64197 8.480353,-5.52194 0.272992,-1.32675 0.850736,-3.72369 0.713473,-5.58554 0,0 0.361032,-6.9034 0.07211,-6.91798 l -2.122606,-0.689661 c -0.296117,1.372631 -0.20142,3.005801 -0.888347,4.117871 -1.125971,0.76332 -6.155661,3.59571 -6.155661,3.59571 0,0.76322 0.97186,2.23602 1.599036,2.93513 1.402996,1.56387 -1.066681,1.07545 -2.276263,0.83934 -0.586169,0.22527 -0.834663,1.06188 -1.183346,1.47198 -0.57099,0.67157 -1.358554,1.26156 -1.856508,1.56462 -0.299981,0.18258 -0.706977,0.0645 -1.514538,-0.43175 -0.79852,-0.49072 -0.113128,-1.74136 -0.747604,-2.52278 z"
       style="opacity:1;fill:#5d493d;fill-opacity:0.39534888;stroke:none;stroke-width:8.68753719;stroke-linecap:round;stroke-linejoin:round;stroke-miterlimit:4;stroke-dasharray:none;stroke-opacity:1;paint-order:fill markers stroke" />
    <path
       sodipodi:nodetypes="ccssssssssccssssc"
       inkscape:connector-curvature="0"
       id="path904"
       d="m 79.671809,106.41918 2.700849,-0.24736 2.49148,-0.13102 c 0.558496,-0.0293 3.058467,1.05214 2.848256,2.964 -0.137311,1.24886 -0.700448,0.30958 -1.306391,-0.31383 -0.376947,-0.3878 -0.857277,-0.56382 -0.911236,-0.63214 -0.553209,-0.70062 -1.124124,-0.12369 -2.134378,-0.38002 -0.605514,-0.15364 -2.004782,0.11586 -2.711719,0.11065 -0.53185,-0.004 -1.835463,0.50033 -2.289117,0.62796 -0.498782,0.14031 -1.09405,0.42402 -1.412648,0.81918 -0.382643,0.47458 -0.211349,1.7667 -0.273915,2.68941 l -0.07024,0.58925 c 0,0 -0.694732,-1.14083 -0.909343,-2.14971 -0.06564,-0.30861 0.163184,-1.27667 0.163184,-1.27667 0.48696,-0.44934 0.627076,-1.2895 1.070396,-1.66232 0.199316,-0.16762 0.61109,-0.10401 1.042646,-0.25115 0.8239,-0.2809 1.760564,-0.72215 1.702173,-0.75623 z"
       style="opacity:1;fill:#745745;fill-opacity:0.39607843;stroke:none;stroke-width:2.92512226;stroke-linecap:round;stroke-linejoin:round;stroke-miterlimit:4;stroke-dasharray:none;stroke-opacity:1;paint-order:fill markers stroke" />
    <path
       sodipodi:nodetypes="ssscsssccs"
       inkscape:connector-curvature="0"
       id="path906"
       d="m 81.478136,93.600065 c 1.138967,-0.436668 2.134341,-1.04566 3.641524,-1.040474 0.279492,0 3.35716,0.613304 3.77459,0.850477 0.657408,0.373512 1.260899,0.989674 1.8062,1.867694 0.192087,0.506888 0.20139,0.647858 -0.05137,0.528558 -0.644832,-0.304377 -1.205452,-0.629232 -1.73287,-0.922735 -1.819558,-1.012507 -3.243961,-1.651873 -6.367865,0.209259 -0.0587,0.03498 -1.961179,1.340909 -2.466557,0.87376 l -0.05945,-1.21875 c 0.564832,-0.747845 1.194826,-1.047723 1.455801,-1.147789 z"
       style="opacity:1;fill:#000000;fill-opacity:0.17748916;stroke:none;stroke-width:2.66499996;stroke-linecap:round;stroke-linejoin:round;stroke-miterlimit:4;stroke-dasharray:none;stroke-opacity:1;paint-order:fill markers stroke" />
    <path
       sodipodi:nodetypes="cccscc"
       inkscape:connector-curvature="0"
       id="path908"
       d="m 73.141706,95.58108 c -0.360283,0.844973 -0.463532,1.470528 -0.468003,1.947571 0.08432,-0.967713 0.504716,-0.510196 1.205076,-0.630396 0.30014,0.05876 1.493104,0.658231 1.723574,0.262811 0.178134,-0.305647 0.598469,-1.090269 0.336476,-1.187609 -0.95758,-0.817668 -2.21232,-0.402802 -2.797123,-0.392377 z"
       style="opacity:1;fill:#000000;fill-opacity:0.25974025;stroke:none;stroke-width:2.66499996;stroke-linecap:round;stroke-linejoin:round;stroke-miterlimit:4;stroke-dasharray:none;stroke-opacity:1;paint-order:fill markers stroke" />
    <path
       inkscape:connector-curvature="0"
       id="path910"
       d="m 88.606389,91.309938 c -0.124672,0.0048 -0.258683,0.01482 -0.398939,0.02791 -0.381264,0.03593 -0.809016,0.0988 -1.224227,0.159676 -0.04307,0.0063 -0.08644,0.01191 -0.129196,0.01799 -0.302921,0.04445 -0.595947,0.08676 -0.85471,0.116258 -0.12946,0.01482 -0.250666,0.02619 -0.360204,0.03307 -0.109272,0.0069 -0.207406,0.0098 -0.290935,0.0063 -0.339355,-0.01402 -0.685112,0.0026 -1.031452,0.04133 -0.346366,0.04001 -0.69342,0.104563 -1.035077,0.188621 -0.683312,0.168143 -1.345565,0.414576 -1.939925,0.699188 -0.297206,0.142293 -0.577162,0.294164 -0.834575,0.450612 -0.514694,0.312817 -0.938159,0.643916 -1.223698,0.953426 -0.07138,0.07742 -0.134196,0.153326 -0.187589,0.227383 -0.05361,0.07427 -0.09774,0.146341 -0.131789,0.216006 -0.102923,0.210635 -0.245322,0.412141 -0.376185,0.562239 -1.06e-4,1.06e-4 8e-5,0 0,0 -0.06535,0.07485 -0.128032,0.137081 -0.181398,0.18087 -0.05347,0.04387 -0.09782,0.06927 -0.126603,0.07131 -0.136393,0.0098 -0.301572,0.04916 -0.480087,0.105939 -0.178488,0.05681 -0.370337,0.13126 -0.560678,0.211349 -0.380683,0.160205 -0.754698,0.342927 -1.000972,0.453205 -0.08808,0.03945 -0.190633,0.03535 -0.273897,0.0217 -0.08324,-0.01349 -0.147135,-0.03683 -0.157612,-0.03617 -0.145521,0.0085 -0.305038,-0.0567 -0.452676,-0.140547 -0.147637,-0.08385 -0.283395,-0.186557 -0.3819,-0.253232 -0.06564,-0.04445 -0.114696,-0.07292 -0.139514,-0.06924 -0.119618,0.01773 -0.199576,0.01402 -0.273897,0.0026 -0.111443,-0.01852 -0.209868,-0.05606 -0.408226,-0.06718 -0.198356,-0.01111 -0.496833,0.004 -1.008722,0.09043 -0.178964,0.0608 -0.319088,0.108135 -0.459925,0.162772 -0.281702,0.109246 -0.565759,0.247835 -1.165305,0.580839 -0.299773,0.166529 -0.678312,0.381503 -1.17512,0.666115 -1.027748,0.882227 -1.237589,1.814169 -1.20613,2.750741 0.01905,0.561892 0.124566,1.125672 0.192749,1.681032 0.06448,0.19037 0.132689,0.3697 0.201533,0.53692 0.137716,0.33443 0.278712,0.62008 0.402564,0.84595 0.123851,0.22585 0.230505,0.39177 0.298688,0.48781 0.102288,0.14404 0.118295,0.13026 -0.02222,-0.0775 0.213863,0.26588 0.348271,0.47223 0.496623,0.65527 0.04942,0.061 0.100515,0.11959 0.15658,0.17674 0.224288,0.22842 0.529484,0.4367 1.13792,0.70951 0.02963,0.0132 0.07924,0.0212 0.143643,0.0249 0.06432,0.004 0.143721,0.003 0.233071,0 0.08938,-0.004 0.189151,-0.0119 0.294031,-0.0222 0.315225,-0.031 0.679027,-0.0859 0.961179,-0.14057 0.188119,-0.0365 0.340175,-0.0729 0.417564,-0.10232 0.13372,-0.0509 0.265165,-0.1094 0.387032,-0.16949 0.122026,-0.0602 0.234659,-0.12208 0.330227,-0.18087 0.09554,-0.0588 0.174413,-0.11449 0.228917,-0.16124 0.02715,-0.0233 0.04826,-0.0442 0.06255,-0.0625 1.32e-4,-1.8e-4 -1.32e-4,0 0,0 0.01429,-0.0183 0.0217,-0.0334 0.02117,-0.0455 -0.0079,-0.17838 -0.01243,-0.35412 -0.01085,-0.50025 -0.561446,0.41281 -1.926272,1.39338 -2.765715,1.1126 -1.267513,-0.42396 -1.644359,-1.14387 -2.10738,-1.82935 -0.177615,-0.33245 -0.383222,-0.74798 -0.563271,-1.2795 -0.140785,-0.88289 -0.350864,-1.687778 -0.09766,-2.482533 0.309271,-1.439863 1.042908,-1.632982 1.505347,-2.009193 0.77806,-0.41611 1.758659,-0.885825 2.351272,-0.912601 0.355574,-0.01614 0.714374,0.03487 1.040235,0.153485 0.755359,0.274928 1.181365,1.083575 1.520851,1.771465 0.355468,0.720301 0.386768,1.331462 0.386001,2.057241 0.162216,-0.318161 0.320331,-0.631455 0.441325,-0.881089 0.0026,-0.0029 0.0026,-0.0048 0.0037,-0.0077 0.01005,-0.02064 0.01482,-0.0326 0.02434,-0.05218 0.04598,-0.0958 0.08887,-0.186134 0.11938,-0.254767 0.03821,-0.08665 0.0653,-0.153829 0.07027,-0.181398 0.01826,-0.10168 0.02143,-0.19611 0.01561,-0.284718 -2.7e-5,-1.86e-4 0,0 0,0 -0.0061,-0.08877 -0.02143,-0.171503 -0.03929,-0.25064 -0.03577,-0.158221 -0.0826,-0.300805 -0.0899,-0.441299 -0.01217,-0.236749 0.01376,-0.515302 0.07649,-0.699717 0.02514,-0.07377 0.0562,-0.132397 0.093,-0.167428 0.01852,-0.01746 0.03815,-0.029 0.05943,-0.03358 0.183172,-0.03942 0.3633,-0.109299 0.529696,-0.187087 0.119724,-0.05593 0.233495,-0.115464 0.331232,-0.173117 2.65e-4,-1.32e-4 2.65e-4,0 0,0 0.116787,-0.06892 0.213731,-0.133429 0.281623,-0.180869 0.06792,-0.04744 0.106468,-0.07752 0.106468,-0.07752 0.0082,-0.01376 0.01455,-0.02302 0.01958,-0.02738 0.005,-0.0045 0.0087,-0.0042 0.01085,0 0.0042,0.0082 0.0034,0.0318 0,0.06771 -0.02355,0.216032 -0.16756,0.870796 -0.04961,1.136861 0.121867,0.274955 0.272309,0.564515 0.435107,0.849578 1.06e-4,2.11e-4 0,0 0,0 0.08139,0.142425 0.166026,0.284003 0.251672,0.422195 7.9e-5,1.32e-4 -8e-5,0 0,0 0.17145,0.276675 0.347477,0.540279 0.512127,0.773086 0.08234,0.116443 0.161978,0.225293 0.23667,0.324009 0.149357,0.197432 0.2794,0.354756 0.374147,0.454236 0.125572,0.13187 0.209947,0.21561 0.272839,0.2744 0.06294,0.0587 0.104034,0.0928 0.144171,0.12454 0.08033,0.0636 0.154808,0.11869 0.383461,0.35089 0.118242,0.12009 0.227383,0.20458 0.326072,0.26405 1.06e-4,8e-5 0,-5e-5 0,0 0.296175,0.17802 0.500222,0.13216 0.587561,0.15608 0.0616,0.0169 0.131392,0.0296 0.208253,0.0382 0.153749,0.0172 0.335783,0.0185 0.536416,0.007 0.902812,-0.0511 2.184797,-0.36272 2.983786,-0.6754 0.266012,-0.10411 0.478472,-0.2086 0.605658,-0.30334 2.38e-4,-1.6e-4 0,0 0,0 0.04239,-0.0316 0.07498,-0.0618 0.09716,-0.091 0.173619,-0.22815 0.368088,-0.479006 0.561207,-0.743616 0.03982,-0.05458 0.07832,-0.111787 0.117819,-0.167455 0.151924,-0.214021 0.301546,-0.433361 0.434605,-0.657833 0.112765,-0.190209 0.213281,-0.382376 0.297656,-0.57412 0.0098,-0.02222 0.02064,-0.04453 0.02998,-0.06668 5.3e-5,-1.32e-4 -5.2e-5,0 0,0 0.0082,-0.01958 0.01482,-0.03884 0.02276,-0.05839 0.04236,-0.106125 0.07855,-0.211852 0.108003,-0.316786 0.0045,-0.0164 0.01085,-0.03281 0.01508,-0.04908 2.6e-5,-1.85e-4 -5.3e-5,0 0,0 0.01826,-0.07017 0.03299,-0.139541 0.04442,-0.208756 0.02302,-0.138457 0.03143,-0.274797 0.02275,-0.40775 -0.06059,-0.928899 -0.09456,-1.836632 -0.09665,-2.547117 -0.0026,-0.710486 0.02775,-1.223751 0.09509,-1.364271 0.05972,-0.124698 0.12917,-0.234739 0.209815,-0.315727 0.08043,-0.0808 0.171688,-0.132768 0.275431,-0.141076 0.0026,-1.86e-4 0.0048,0 0.0071,0 0.03265,-0.0026 0.06617,0 0.101283,0.0066 0.03739,0.0074 0.07599,0.02011 0.116257,0.03876 0.696595,0.324141 1.576891,0.74295 2.510976,1.189593 2.335186,1.116542 5.003509,2.406729 5.960348,2.827205 1.06e-4,5.3e-5 0,-2.6e-5 0,0 0.19095,0.0839 0.313901,0.133403 0.351922,0.139541 0.117951,0.01905 0.232119,0.03987 0.342609,0.06202 0.331549,0.06638 0.630476,0.145944 0.90125,0.234606 0.361051,0.118216 0.671936,0.252492 0.94361,0.39325 1.33e-4,7.9e-5 0,-5.3e-5 0,0 0.135679,0.0703 0.261409,0.142187 0.378778,0.214471 1.3e-4,5.3e-5 0,-7.9e-5 0,0 0.35229,0.216958 0.62817,0.437647 0.86349,0.628386 0.0549,0.04453 0.25546,0.125068 0.42789,0.314695 0,0 0.25876,-0.09554 0.4868,-0.266144 0.01,-0.0074 0.0164,-0.0074 0.0222,-0.0056 0.004,0 0.006,0.0026 0.009,0.0042 0,-0.0026 0,-0.0026 -0.003,-0.0048 -0.0294,-0.08604 -0.11009,-0.199178 -0.22944,-0.331232 -0.0597,-0.06604 -0.12917,-0.136789 -0.20669,-0.211375 -0.0775,-0.07456 -0.16299,-0.152929 -0.2553,-0.234077 -1.10776,-0.973984 -3.169179,-2.351088 -3.525362,-2.431389 0,0 -4.79761,-2.19829 -7.410397,-3.289194 -0.870929,-0.363617 -1.498864,-0.604388 -1.625732,-0.599466 z m -3.970311,0.900721 c 0.975572,-0.03612 1.884019,0.349858 2.261367,1.220602 0.265324,0.612272 0.554514,2.648082 0.296625,3.832331 -0.399892,1.836314 -1.17692,3.223948 -3.671094,3.588408 -0.707469,0.10338 -1.54768,0.0672 -2.151301,-0.31472 -1.417769,-0.897068 -2.277612,-2.955183 -2.412762,-4.232803 -0.08469,-0.800444 0.326496,-1.606682 0.844392,-2.116137 0.371342,-0.365284 0.606478,-0.445241 1.262459,-0.865082 0.52787,-0.337846 1.987338,-0.744749 2.589504,-0.937921 0.322818,-0.103558 0.655637,-0.16264 0.98081,-0.174678 z m -8.311119,7.791261 c -0.411559,0.76322 -0.798909,1.54305 -0.798909,1.54305 0,0 0.409337,-0.77954 0.798909,-1.54305 z"
       style="opacity:1;fill:#000000;fill-opacity:0.72727272;stroke:none;stroke-width:4.11098385;stroke-linecap:round;stroke-linejoin:round;stroke-miterlimit:4;stroke-dasharray:none;stroke-opacity:1;paint-order:fill markers stroke" />
    <path
       sodipodi:nodetypes="csssscsssscsscccccccscccsc"
       inkscape:connector-curvature="0"
       id="path912"
       d="m 80.14593,128.03233 c -0.865225,0.0774 -2.33875,0.93448 -2.96626,1.16052 -1.071333,0.38592 -3.501884,0.5625 -4.97328,0.76226 -2.068978,0.28088 -1.57622,0.49938 -1.57622,0.49938 -1.045216,-0.0241 -6.538611,1.8688 -8.95722,3.2277 -1.695493,0.95261 -5.363732,1.05847 -7.437068,6.15561 l -2.248958,5.48855 c -0.239983,0.58568 -1.805453,4.78107 -1.172538,4.78059 l 87.381744,-0.0661 c 0.63292,0 -1.28466,-3.32814 -1.63607,-3.85456 -3.54191,-5.30582 -4.70256,-7.59727 -8.44291,-11.49249 -5.16772,-2.31979 -10.88055,-4.09446 -16.36178,-6.10074 -1.66118,-0.60804 -2.96994,-1.79297 -4.53234,-2.23634 -0.31632,-0.0897 -0.73844,-0.49262 -1.12256,-0.75385 -0.45298,-0.23574 -1.68167,-0.77996 -2.41704,-0.61642 0.10406,0.14785 0.34578,0.44854 0.50651,0.54581 0.25196,0.23582 0.57384,0.40679 0.96152,0.54662 1.37634,3.08483 -0.76907,6.79633 -2.41828,9.19388 -2.79152,2.04377 -5.738205,3.75232 -7.30343,3.66696 -2.861413,-0.15605 -5.917938,-0.12141 -6.219328,-0.39073 -1.20297,-1.07506 -8.977863,-1.26415 -8.242998,-10.6833 0.04573,-0.58618 1.293757,-1.32127 1.60678,-1.43528 0.038,-0.0138 0.0688,-0.0198 0.09664,-0.0222 -0.0042,-0.0214 -0.0099,-0.0327 -0.01344,-0.0589 l -0.04153,-0.25043 c -0.969486,0.26069 -1.726054,0.54213 -2.469938,1.93355 z"
       style="opacity:1;fill:#ff2023;fill-opacity:0.47674417;stroke:#000000;stroke-width:0;stroke-linecap:round;stroke-linejoin:round;stroke-miterlimit:4;stroke-dasharray:none;stroke-opacity:1;paint-order:fill markers stroke" />
  </g>
</svg>
