<svg width="290.62" height="271.8" version="1.1" viewBox="0 0 290.62 271.8" xmlns="http://www.w3.org/2000/svg">
 <ellipse cx="142.5" cy="136.8" rx="140.5" ry="135" fill="#e61010" fill-opacity=".71318" style="paint-order:fill markers stroke"/>
 <path d="m97.377 9.125a140.5 135 0 0 0-76.275 59.971l29.291 25.996 58.363-34.254-11.379-51.713zm97.264 2.4277-16.863 38.617 50.615 44.922 37.754-22.158a140.5 135 0 0 0-71.506-61.381zm-49.812 68.684-55.316 38.988 19.984 64.656 67.668 0.97266 21.836-64.055-54.172-40.563zm-92.848 62.955-48.43 12.639a140.5 135 0 0 0 50.789 85.941l34.127-41.584-36.486-56.996zm173.85 0.47851-35.213 57.791 36.736 42.789a140.5 135 0 0 0 53.91-87.422l-55.434-13.158zm-116.37 74.635-15.959 44.844a140.5 135 0 0 0 48.992 8.6504 140.5 135 0 0 0 47.441-8.0684l-12.826-43.549-67.648-1.877z" fill="#e61010" fill-opacity=".71318" style="paint-order:fill markers stroke"/>
</svg>
