<svg width="290.62" height="271.8" version="1.1" viewBox="0 0 290.62 271.8" xmlns="http://www.w3.org/2000/svg">
 <path d="m36.137 0c-2.3921 0-4.3184 1.9262-4.3184 4.3184v72.682c0 2.3921 1.9262 4.3184 4.3184 4.3184h13.992c2.3921 0 4.3184-1.9262 4.3184-4.3184v-31.822c0.25437 0.0463 0.51309 0.078125 0.78125 0.078125h11.527v22.531a80 97 0 0 0 53 76.693v44.143c0 2.3921 1.9262 4.3184 4.3184 4.3184h47.363c2.3921 0 4.3184-1.9262 4.3184-4.3184v-45.98a80 97 0 0 0 50-89.701 80 97 0 0 0-0.34961-7.6855h12.105c0.0261 0 0.05017-0.006812 0.07617-0.007812v31.752c0 2.3921 1.9243 4.3184 4.3164 4.3184h13.992c2.3921 0 4.3184-1.9262 4.3184-4.3184v-72.682c0-2.3921-1.9262-4.3184-4.3184-4.3184h-13.992c-2.3921 0-4.3164 1.9262-4.3164 4.3184v30.338c-0.026-4.5e-4 -0.05007-0.007812-0.07617-0.007812h-13.295a80 97 0 0 0-0.08985-0.70703h-18.4a62.091 78.859 0 0 1 0.14258 0.70703h-118.93a62.091 78.859 0 0 1 0.14258-0.70703h-16.008c-0.86901 0-1.6653 0.26721-2.3379 0.70703h-13.508c-0.26816 0-0.52688 0.031824-0.78125 0.078124v-30.408c0-2.3921-1.9262-4.3184-4.3184-4.3184h-13.992zm-17.715 20.33c-1.1961 0-2.1582 0.96213-2.1582 2.1582v36.342c0 1.1961 0.96213 2.1582 2.1582 2.1582h6.9961c1.1961 0 2.1582-0.96213 2.1582-2.1582v-36.342c0-1.1961-0.96214-2.1582-2.1582-2.1582h-6.9961zm247.49 0c-1.1961 0-2.1582 0.96213-2.1582 2.1582v36.342c0 1.1961 0.96214 2.1582 2.1582 2.1582h6.9961c1.1961 0 2.1602-0.96213 2.1602-2.1582v-36.342c0-1.1961-0.96409-2.1582-2.1602-2.1582h-6.9961zm-265.1 12.705c-0.44852 0-0.80859 0.36202-0.80859 0.81055v13.627c0 0.44852 0.36007 0.81055 0.80859 0.81055h6.8672c0.44853 0 0.80859-0.36203 0.80859-0.81055v-13.627c0-0.44853-0.36006-0.81055-0.80859-0.81055h-6.8672zm283.55 0c-0.44854 0-0.81055 0.36202-0.81055 0.81055v13.627c0 0.44852 0.36202 0.81055 0.81055 0.81055h5.4512c0.44852 0 0.81054-0.36203 0.81054-0.81055v-13.627c0-0.44853-0.36202-0.81055-0.81054-0.81055h-5.4512zm-199.23 12.221h122.59a62.091 78.859 0 0 1 0.8125 11.826 62.091 78.859 0 0 1-45.18 75.859h-33.65a62.091 78.859 0 0 1-45.352-75.859 62.091 78.859 0 0 1 0.7832-11.826zm60.539 17.678a27.577 27.577 0 0 0-27.578 27.576 27.577 27.577 0 0 0 27.578 27.578 27.577 27.577 0 0 0 27.576-27.578 27.577 27.577 0 0 0-27.576-27.576zm60.18 124.25c-1.0026 0.00192-2.0153 0.28125-3.0078 0.90429-34.429 21.613-70.491 23.623-108.69 0-6.3786-3.9447-13.537 6.0393-13.537 13.539v54.242c0 18.814 20.626 17.502 20.609 10.002l-0.10352-47.377c31.201 10.842 62.403 12.15 93.604-3.3594l-1.0742 47.201c-0.31781 13.966 22.729 13.006 22.729-6.4668v-54.242c0-6.328-5.1152-14.454-10.529-14.443z" fill="#e61010" fill-opacity=".71318" style="paint-order:fill markers stroke"/>
</svg>
