<svg width="290.62" height="317.51" version="1.1" viewBox="0 0 290.62 317.51" xmlns="http://www.w3.org/2000/svg">
 <path d="m36.137 0c-2.3921 0-4.3184 1.9262-4.3184 4.3184v72.682c0 2.3921 1.9262 4.3184 4.3184 4.3184h13.992c2.3921 0 4.3184-1.9262 4.3184-4.3184v-31.822c0.25437 0.0463 0.51309 0.078125 0.78125 0.078125h11.527v22.531a80 97 0 0 0 53 76.693v44.143c0 2.3921 1.9262 4.3184 4.3184 4.3184h47.363c2.3921 0 4.3184-1.9262 4.3184-4.3184v-45.98a80 97 0 0 0 50-89.701 80 97 0 0 0-0.34961-7.6855h12.105c0.0261 0 0.05017-0.006812 0.07617-0.007812v31.752c0 2.3921 1.9243 4.3184 4.3164 4.3184h13.992c2.3921 0 4.3184-1.9262 4.3184-4.3184v-72.682c0-2.3921-1.9262-4.3184-4.3184-4.3184h-13.992c-2.3921 0-4.3164 1.9262-4.3164 4.3184v30.338c-0.026-4.5e-4 -0.05007-0.007812-0.07617-0.007812h-13.295a80 97 0 0 0-0.08985-0.70703h-18.4a62.091 78.859 0 0 1 0.14258 0.70703h-118.93a62.091 78.859 0 0 1 0.14258-0.70703h-16.008c-0.86901 0-1.6653 0.26721-2.3379 0.70703h-13.508c-0.26816 0-0.52688 0.031824-0.78125 0.078124v-30.408c0-2.3921-1.9262-4.3184-4.3184-4.3184h-13.992zm-17.715 20.33c-1.1961 0-2.1582 0.96213-2.1582 2.1582v36.342c0 1.1961 0.96213 2.1582 2.1582 2.1582h6.9961c1.1961 0 2.1582-0.96213 2.1582-2.1582v-36.342c0-1.1961-0.96214-2.1582-2.1582-2.1582h-6.9961zm247.49 0c-1.1961 0-2.1582 0.96213-2.1582 2.1582v36.342c0 1.1961 0.96214 2.1582 2.1582 2.1582h6.9961c1.1961 0 2.1602-0.96213 2.1602-2.1582v-36.342c0-1.1961-0.96409-2.1582-2.1602-2.1582h-6.9961zm-265.1 12.705c-0.44852 0-0.80859 0.36202-0.80859 0.81055v13.627c0 0.44852 0.36007 0.81055 0.80859 0.81055h6.8672c0.44853 0 0.80859-0.36203 0.80859-0.81055v-13.627c0-0.44853-0.36006-0.81055-0.80859-0.81055h-6.8672zm283.55 0c-0.44854 0-0.81055 0.36202-0.81055 0.81055v13.627c0 0.44852 0.36202 0.81055 0.81055 0.81055h5.4512c0.44852 0 0.81054-0.36203 0.81054-0.81055v-13.627c0-0.44853-0.36202-0.81055-0.81054-0.81055h-5.4512zm-199.23 12.221h122.59a62.091 78.859 0 0 1 0.8125 11.826 62.091 78.859 0 0 1-45.18 75.859h-33.65a62.091 78.859 0 0 1-45.352-75.859 62.091 78.859 0 0 1 0.7832-11.826zm60.539 17.678a27.577 27.577 0 0 0-27.578 27.576 27.577 27.577 0 0 0 27.578 27.578 27.577 27.577 0 0 0 27.576-27.578 27.577 27.577 0 0 0-27.576-27.576zm3.6582 139.28c-8.5525 0.13271-17.342 5.3456-35.912 14.973-6.6583 3.4517-22.037 24.761-23.365 32.143l-9.4355 52.436c-3.3318 18.516 19.359 17.397 20.609 10.002l9.0898-53.74c25.857-31.907 34.842-52.757 73.803-6.1875l9.5332 56.393c2.3284 13.774 26.225 12.69 22.729-6.4668l-9.8984-54.242c-1.3465-7.3779-16.246-25.911-22.658-29.801-17.625-10.693-25.942-15.641-34.494-15.508z" fill="#e61010" fill-opacity=".71318" style="paint-order:fill markers stroke"/>
</svg>
