<?xml version="1.0" encoding="UTF-8" standalone="no"?>
<!-- Created with Inkscape (http://www.inkscape.org/) -->

<svg
   xmlns:dc="http://purl.org/dc/elements/1.1/"
   xmlns:cc="http://creativecommons.org/ns#"
   xmlns:rdf="http://www.w3.org/1999/02/22-rdf-syntax-ns#"
   xmlns:svg="http://www.w3.org/2000/svg"
   xmlns="http://www.w3.org/2000/svg"
   xmlns:sodipodi="http://sodipodi.sourceforge.net/DTD/sodipodi-0.dtd"
   xmlns:inkscape="http://www.inkscape.org/namespaces/inkscape"
   version="1.1"
   id="svg815"
   width="331.30762"
   height="272.48444"
   viewBox="0 0 331.30762 272.48444"
   sodipodi:docname="All_Backgrounds.svg"
   inkscape:version="0.92.3 (2405546, 2018-03-11)">
  <metadata
     id="metadata821">
    <rdf:RDF>
      <cc:Work
         rdf:about="">
        <dc:format>image/svg+xml</dc:format>
        <dc:type
           rdf:resource="http://purl.org/dc/dcmitype/StillImage" />
        <dc:title></dc:title>
      </cc:Work>
    </rdf:RDF>
  </metadata>
  <defs
     id="defs819" />
  <sodipodi:namedview
     pagecolor="#ffffff"
     bordercolor="#666666"
     borderopacity="1"
     objecttolerance="10"
     gridtolerance="10"
     guidetolerance="10"
     inkscape:pageopacity="0"
     inkscape:pageshadow="2"
     inkscape:window-width="1920"
     inkscape:window-height="986"
     id="namedview817"
     showgrid="false"
     showguides="true"
     inkscape:guide-bbox="true"
     inkscape:zoom="0.70710678"
     inkscape:cx="922.50105"
     inkscape:cy="-113.53157"
     inkscape:window-x="-11"
     inkscape:window-y="-11"
     inkscape:window-maximized="1"
     inkscape:current-layer="svg815" />
  <rect
     style="opacity:1;fill:#5d007d;fill-opacity:1;stroke:none;stroke-width:0.37795275;stroke-linecap:round;stroke-linejoin:round;stroke-miterlimit:4;stroke-dasharray:none;stroke-opacity:1;paint-order:fill markers stroke"
     id="rect2068"
     width="368"
     height="288"
     x="-18"
     y="-9.515564"
     ry="4.3179202" />
  <path
     style="opacity:1;fill:#3e55da;fill-opacity:0.23255813;stroke:none;stroke-width:0.37795275;stroke-linecap:round;stroke-linejoin:round;stroke-miterlimit:4;stroke-dasharray:none;stroke-opacity:1;paint-order:fill markers stroke"
     d="m 345.68208,-9.515564 c 2.39213,0 4.31792,1.9257924 4.31792,4.3179202 V 274.16652 c 0,2.39212 -1.92579,4.31792 -4.31792,4.31792 l -221.86416,0 c -2.39213,0 -3.86908,-3.03171 -4.31792,-4.31792 C 352.07854,200.99574 140.54277,35.484436 345.68208,-9.515564 Z"
     id="rect2070"
     inkscape:connector-curvature="0"
     sodipodi:nodetypes="csssscc" />
  <path
     sodipodi:nodetypes="csssscc"
     inkscape:connector-curvature="0"
     id="path2073"
     d="m -12.18208,-8.515564 c -2.39213,0 -4.31792,1.9257924 -4.31792,4.3179202 V 275.16652 c 0,2.39212 1.92579,4.31792 4.31792,4.31792 h 221.86416 c 2.39213,0 3.86908,-3.03171 4.31792,-4.31792 C -18.57854,201.99574 192.95723,36.484436 -12.18208,-8.515564 Z"
     style="opacity:1;fill:#3e55da;fill-opacity:0.23255813;stroke:none;stroke-width:0.37795275;stroke-linecap:round;stroke-linejoin:round;stroke-miterlimit:4;stroke-dasharray:none;stroke-opacity:1;paint-order:fill markers stroke" />
  <rect
     ry="4.3179202"
     y="-9.5155478"
     x="426"
     height="288"
     width="368"
     id="rect2075"
     style="opacity:1;fill:#5d007d;fill-opacity:1;stroke:none;stroke-width:0.37795275;stroke-linecap:round;stroke-linejoin:round;stroke-miterlimit:4;stroke-dasharray:none;stroke-opacity:1;paint-order:fill markers stroke" />
  <path
     sodipodi:nodetypes="csssscc"
     inkscape:connector-curvature="0"
     id="path2077"
     d="m 789.68208,-9.51558 c 2.39213,0 4.31792,1.9258 4.31792,4.3179 v 279.3642 c 0,2.3921 -1.92579,4.3179 -4.31792,4.3179 H 567.81792 c -2.39213,0 -3.86908,-3.0317 -4.31792,-4.3179 C 779.36494,211.28101 535.44957,65.695622 789.68208,-9.51558 Z"
     style="opacity:1;fill:#3e55da;fill-opacity:0.23255813;stroke:none;stroke-width:0.37795275;stroke-linecap:round;stroke-linejoin:round;stroke-miterlimit:4;stroke-dasharray:none;stroke-opacity:1;paint-order:fill markers stroke" />
  <path
     style="opacity:1;fill:#3e55da;fill-opacity:0.23255813;stroke:none;stroke-width:0.37795275;stroke-linecap:round;stroke-linejoin:round;stroke-miterlimit:4;stroke-dasharray:none;stroke-opacity:1;paint-order:fill markers stroke"
     d="m 431.81792,-8.51558 c -2.39213,0 -4.31792,1.9258 -4.31792,4.3179 v 279.3642 c 0,2.3921 1.92579,4.3179 4.31792,4.3179 h 221.86416 c 2.39213,0 3.86908,-3.0317 4.31792,-4.3179 C 432.14259,208.71685 671.60402,71.131205 431.81792,-8.51558 Z"
     id="path2079"
     inkscape:connector-curvature="0"
     sodipodi:nodetypes="csssscc" />
  <rect
     style="opacity:1;fill:#5d007d;fill-opacity:1;stroke:none;stroke-width:0.37795275;stroke-linecap:round;stroke-linejoin:round;stroke-miterlimit:4;stroke-dasharray:none;stroke-opacity:1;paint-order:fill markers stroke"
     id="rect2081"
     width="368"
     height="288"
     x="880"
     y="-9.5155478"
     ry="4.3179202" />
  <path
     style="opacity:1;fill:#3e55da;fill-opacity:0.23255813;stroke:none;stroke-width:0.37795275;stroke-linecap:round;stroke-linejoin:round;stroke-miterlimit:4;stroke-dasharray:none;stroke-opacity:1;paint-order:fill markers stroke"
     d="m 1243.6821,-9.51558 c 2.3921,0 4.3179,1.9258 4.3179,4.3179 v 279.3642 c 0,2.3921 -1.9258,4.3179 -4.3179,4.3179 h -221.8642 c -2.3921,0 -3.8691,-3.0317 -4.3179,-4.3179 316.4539,-55.02699 40.7419,-203.096494 226.1821,-283.6821 z"
     id="path2083"
     inkscape:connector-curvature="0"
     sodipodi:nodetypes="csssscc" />
  <path
     sodipodi:nodetypes="csssscc"
     inkscape:connector-curvature="0"
     id="path2085"
     d="m 885.81792,-8.51558 c -2.39213,0 -4.31792,1.9258 -4.31792,4.3179 v 279.3642 c 0,2.3921 1.92579,4.3179 4.31792,4.3179 h 221.86418 c 2.3921,0 3.8691,-3.0317 4.3179,-4.3179 C 761.319,268.14743 1079.8949,93.245196 885.81792,-8.51558 Z"
     style="opacity:1;fill:#3e55da;fill-opacity:0.23255813;stroke:none;stroke-width:0.37795275;stroke-linecap:round;stroke-linejoin:round;stroke-miterlimit:4;stroke-dasharray:none;stroke-opacity:1;paint-order:fill markers stroke" />
  <rect
     ry="4.3179202"
     y="-9.5155478"
     x="1349"
     height="288"
     width="368"
     id="rect2087"
     style="opacity:1;fill:#5d007d;fill-opacity:1;stroke:none;stroke-width:0.37795275;stroke-linecap:round;stroke-linejoin:round;stroke-miterlimit:4;stroke-dasharray:none;stroke-opacity:1;paint-order:fill markers stroke" />
  <path
     sodipodi:nodetypes="csssscc"
     inkscape:connector-curvature="0"
     id="path2089"
     d="m 1712.6821,-9.51558 c 2.3921,0 4.3179,1.9258 4.3179,4.3179 v 279.3642 c 0,2.3921 -1.9258,4.3179 -4.3179,4.3179 h -221.8642 c -2.3921,0 -3.8691,-3.0317 -4.3179,-4.3179 275.8259,3.88362 32.6127,-191.309163 226.1821,-283.6821 z"
     style="opacity:1;fill:#3e55da;fill-opacity:0.23255813;stroke:none;stroke-width:0.37795275;stroke-linecap:round;stroke-linejoin:round;stroke-miterlimit:4;stroke-dasharray:none;stroke-opacity:1;paint-order:fill markers stroke" />
  <path
     style="opacity:1;fill:#3e55da;fill-opacity:0.23255813;stroke:none;stroke-width:0.37795275;stroke-linecap:round;stroke-linejoin:round;stroke-miterlimit:4;stroke-dasharray:none;stroke-opacity:1;paint-order:fill markers stroke"
     d="m 1354.8179,-8.51558 c -2.3921,0 -4.3179,1.9258 -4.3179,4.3179 v 279.3642 c 0,2.3921 1.9258,4.3179 4.3179,4.3179 h 221.8642 c 2.3921,0 3.8691,-3.0317 4.3179,-4.3179 -261.1121,-17.19737 -14.5339,-183.918056 -226.1821,-283.6821 z"
     id="path2091"
     inkscape:connector-curvature="0"
     sodipodi:nodetypes="csssscc" />
  <rect
     ry="4.3179202"
     y="-9.515564"
     x="1812"
     height="288"
     width="368"
     id="rect2093"
     style="opacity:1;fill:#5d007d;fill-opacity:1;stroke:none;stroke-width:0.37795275;stroke-linecap:round;stroke-linejoin:round;stroke-miterlimit:4;stroke-dasharray:none;stroke-opacity:1;paint-order:fill markers stroke" />
  <path
     sodipodi:nodetypes="csssscc"
     inkscape:connector-curvature="0"
     id="path2095"
     d="m 2175.6821,-9.515564 c 2.3921,0 4.3179,1.9257924 4.3179,4.3179202 V 274.16652 c 0,2.39212 -1.9258,4.31792 -4.3179,4.31792 h -221.8642 c -2.3921,0 -3.8691,-3.03171 -4.3179,-4.31792 232.5785,-73.17078 21.0428,-238.682084 226.1821,-283.682084 z"
     style="opacity:1;fill:#3e55da;fill-opacity:0.23255813;stroke:none;stroke-width:0.37795275;stroke-linecap:round;stroke-linejoin:round;stroke-miterlimit:4;stroke-dasharray:none;stroke-opacity:1;paint-order:fill markers stroke" />
  <path
     style="opacity:1;fill:#3e55da;fill-opacity:0.23255813;stroke:none;stroke-width:0.37795275;stroke-linecap:round;stroke-linejoin:round;stroke-miterlimit:4;stroke-dasharray:none;stroke-opacity:1;paint-order:fill markers stroke"
     d="m 1817.8179,-8.515564 c -2.3921,0 -4.3179,1.9257924 -4.3179,4.3179202 V 275.16652 c 0,2.39212 1.9258,4.31792 4.3179,4.31792 h 221.8642 c 2.3921,0 3.8691,-3.03171 4.3179,-4.31792 C 1811.4215,201.99574 2022.9572,36.484436 1817.8179,-8.515564 Z"
     id="path2097"
     inkscape:connector-curvature="0"
     sodipodi:nodetypes="csssscc" />
</svg>
